<?xml version="1.0" encoding="utf-8"?>
<!-- Generator: Adobe Illustrator 16.0.0, SVG Export Plug-In . SVG Version: 6.00 Build 0)  -->
<!DOCTYPE svg PUBLIC "-//W3C//DTD SVG 1.1//EN" "http://www.w3.org/Graphics/SVG/1.1/DTD/svg11.dtd">
<svg version="1.1" id="Layer_1" xmlns="http://www.w3.org/2000/svg" xmlns:xlink="http://www.w3.org/1999/xlink" x="0px" y="0px"
	 width="610.369px" height="238.488px" viewBox="0 0 610.369 238.488" enable-background="new 0 0 610.369 238.488"
	 xml:space="preserve">
<g>
	<g>
		<path fill="#B6B8BA" d="M106.534,94.231c0,1.352,0.239,2.624,0.636,3.736c1.272,3.418,5.088,4.134,8.347,4.134
			c2.862,0,7.234-0.954,7.234-5.167c0-2.862-2.464-3.737-12.243-6.519c-8.983-2.544-19.239-5.008-19.239-16.456
			c0-13.117,11.209-18.762,22.896-18.762c12.322,0,23.293,4.77,23.691,18.523h-16.536c0.318-2.146-0.557-3.577-2.067-4.531
			c-1.51-1.034-3.339-1.431-5.167-1.431c-2.385,0-6.28,0.636-6.28,3.816c0.238,3.975,8.506,5.088,16.456,7.155
			c8.029,2.305,15.979,5.883,15.979,16.376c0,14.787-13.515,19.557-26.234,19.557c-6.36,0-24.962-2.306-24.962-20.431H106.534z"/>
		<path fill="#B6B8BA" d="M164.33,72.051h8.427v9.699h-8.427v14.389c0,3.816,0.795,5.486,4.85,5.486c1.192,0,2.385-0.08,3.577-0.239
			v11.925c-3.18,0-6.678,0.477-10.096,0.477c-6.678,0-14.071-1.034-14.071-12.322V81.75h-6.996v-9.699h6.996V59.491h15.741V72.051z"
			/>
		<path fill="#B6B8BA" d="M217.992,104.089c0,3.1,0.08,6.598,1.908,9.222h-16.059c-0.397-1.192-0.636-2.703-0.556-3.896h-0.159
			c-3.418,3.816-8.188,4.929-13.276,4.929c-7.95,0-14.548-3.816-14.548-12.481c0-13.117,15.343-12.481,23.293-14.071
			c2.146-0.397,4.293-1.033,4.293-3.657c0-2.783-2.624-3.816-5.167-3.816c-4.77,0-5.883,2.464-5.883,4.213h-14.628
			c0.397-11.687,11.527-13.515,21.226-13.515c19.716,0,19.557,8.188,19.557,16.138V104.089z M202.887,94.788
			c-1.908,0.954-4.055,1.431-6.201,1.987c-3.498,0.875-5.326,1.669-5.326,4.452c0,1.908,2.067,3.816,4.929,3.816
			c3.578,0,6.36-2.067,6.599-6.439V94.788z"/>
		<path fill="#B6B8BA" d="M226.339,72.051h15.184v5.247h0.159c2.941-4.134,7.075-6.28,13.435-6.28
			c7.394,0,14.151,4.531,14.151,13.992v28.301h-15.741V91.688c0-4.77-0.557-8.109-5.167-8.109c-2.783,0-6.28,1.352-6.28,7.95v21.783
			h-15.741V72.051z"/>
		<path fill="#B6B8BA" d="M293.914,67.6h-15.741v-11.05h15.741V67.6z M278.173,72.051h15.741v41.26h-15.741V72.051z"/>
		<path fill="#B6B8BA" d="M326.746,84.056c-0.08-1.352-0.795-2.385-1.829-3.101c-0.954-0.795-2.146-1.192-3.498-1.192
			c-2.226,0-4.77,0.557-4.77,3.18c0,1.192,0.954,1.749,1.829,2.146c2.544,1.033,8.586,1.51,13.833,3.18
			c5.326,1.669,9.857,4.77,9.857,11.527c0,11.448-10.971,14.548-20.987,14.548c-9.699,0-20.352-3.896-20.59-14.548h15.025
			c0.08,1.352,0.715,2.624,1.908,3.657c0.875,0.795,2.306,1.192,4.213,1.192c2.067,0,5.327-0.795,5.327-3.18
			s-1.352-3.101-8.666-4.373c-12.004-1.987-16.854-5.883-16.854-12.958c0-10.415,11.209-13.117,19.477-13.117
			c8.904,0,19.636,2.464,20.034,13.038H326.746z"/>
		<path fill="#B6B8BA" d="M348.847,92.244l-4.77,3.657v-8.109l4.77-3.657V56.549h15.741v15.423l4.77-3.657v8.109l-4.77,3.657v33.23
			h-15.741V92.244z"/>
		<path fill="#B6B8BA" d="M413.796,104.089c0,3.1,0.08,6.598,1.908,9.222h-16.059c-0.397-1.192-0.636-2.703-0.556-3.896h-0.159
			c-3.418,3.816-8.188,4.929-13.276,4.929c-7.95,0-14.548-3.816-14.548-12.481c0-13.117,15.343-12.481,23.293-14.071
			c2.146-0.397,4.293-1.033,4.293-3.657c0-2.783-2.624-3.816-5.167-3.816c-4.77,0-5.883,2.464-5.883,4.213h-14.628
			c0.397-11.687,11.527-13.515,21.226-13.515c19.716,0,19.557,8.188,19.557,16.138V104.089z M398.692,94.788
			c-1.908,0.954-4.055,1.431-6.201,1.987c-3.498,0.875-5.326,1.669-5.326,4.452c0,1.908,2.067,3.816,4.929,3.816
			c3.578,0,6.36-2.067,6.599-6.439V94.788z"/>
		<path fill="#B6B8BA" d="M474.533,113.311h-16.138l-5.962-25.36h-0.159l-6.122,25.36h-16.138l-12.878-41.26h16.376l6.122,25.519
			h0.159l5.247-25.519h14.707l5.485,25.519h0.318l5.724-25.519h16.376L474.533,113.311z"/>
	</g>
	<g>
		<path fill="#BABCBE" d="M87.118,47.714h-8.842c-6.896,0-8.488,7.604-8.488,15.208v32.36c0,16.446-11.317,22.812-15.385,23.696
			v0.531c4.067,0.53,15.385,5.835,15.385,23.696v32.36c0,7.25,1.591,15.208,8.488,15.208h8.842v10.61H74.74
			c-8.841,0-19.098-8.134-19.098-23.166v-32.184c0-12.909-7.073-20.689-14.677-20.689V113.32c7.604,0,14.677-8.488,14.677-20.866
			V60.27c0-15.031,10.257-23.165,19.098-23.165h12.378V47.714z"/>
	</g>
	<g>
		<path d="M89.709,122.383h24.883l8.109,33.389h0.159l8.109-33.389h24.883v56.762h-16.536v-36.41h-0.159l-9.858,36.41h-13.038
			l-9.858-36.41h-0.159v36.41H89.709V122.383z"/>
		<path d="M204.823,169.923c0,3.1,0.08,6.598,1.908,9.222h-16.059c-0.397-1.192-0.636-2.703-0.556-3.896h-0.159
			c-3.418,3.816-8.188,4.929-13.276,4.929c-7.95,0-14.548-3.816-14.548-12.481c0-13.117,15.343-12.481,23.293-14.071
			c2.146-0.397,4.293-1.033,4.293-3.657c0-2.783-2.624-3.816-5.167-3.816c-4.77,0-5.883,2.464-5.883,4.213H164.04
			c0.397-11.687,11.527-13.515,21.226-13.515c19.716,0,19.557,8.188,19.557,16.138V169.923z M189.718,160.622
			c-1.908,0.954-4.055,1.431-6.201,1.987c-3.498,0.875-5.326,1.669-5.326,4.452c0,1.908,2.067,3.816,4.929,3.816
			c3.578,0,6.36-2.067,6.599-6.439V160.622z"/>
		<path d="M213.488,122.383h15.741v56.762h-15.741V122.383z"/>
		<path d="M278.438,169.923c0,3.1,0.08,6.598,1.908,9.222h-16.059c-0.397-1.192-0.636-2.703-0.556-3.896h-0.159
			c-3.418,3.816-8.188,4.929-13.276,4.929c-7.95,0-14.548-3.816-14.548-12.481c0-13.117,15.343-12.481,23.293-14.071
			c2.146-0.397,4.293-1.033,4.293-3.657c0-2.783-2.624-3.816-5.167-3.816c-4.77,0-5.883,2.464-5.883,4.213h-14.628
			c0.397-11.687,11.527-13.515,21.226-13.515c19.716,0,19.557,8.188,19.557,16.138V169.923z M263.333,160.622
			c-1.908,0.954-4.055,1.431-6.201,1.987c-3.498,0.875-5.326,1.669-5.326,4.452c0,1.908,2.067,3.816,4.929,3.816
			c3.578,0,6.36-2.067,6.599-6.439V160.622z"/>
		<path d="M286.786,137.885h15.184v5.247h0.159c2.941-4.134,7.075-6.28,13.435-6.28c7.394,0,14.151,4.531,14.151,13.992v28.301
			h-15.741v-21.624c0-4.77-0.557-8.109-5.167-8.109c-2.782,0-6.28,1.352-6.28,7.95v21.783h-15.741V137.885z"/>
		<path d="M359.05,180.178c-15.502,0-22.498-10.255-22.498-21.703c0-11.368,6.996-21.624,22.498-21.624
			c15.502,0,22.498,10.255,22.498,21.624C381.548,169.923,374.552,180.178,359.05,180.178z M359.05,148.299
			c-6.042,0-6.757,5.803-6.757,10.176c0,4.372,0.715,10.255,6.757,10.255s6.757-5.883,6.757-10.255
			C365.808,154.103,365.092,148.299,359.05,148.299z"/>
		<path d="M440.775,179.145h-16.138l-5.962-25.36h-0.159l-6.122,25.36h-16.138l-12.878-41.26h16.376l6.122,25.519h0.159
			l5.247-25.519h14.707l5.485,25.519h0.318l5.724-25.519h16.376L440.775,179.145z"/>
		<path d="M473.609,133.433h-15.741v-11.05h15.741V133.433z M457.868,137.885h15.741v41.26h-15.741V137.885z"/>
		<path d="M509.224,153.546c-0.159-1.749-0.715-3.021-1.749-3.895c-1.033-0.875-2.305-1.352-3.975-1.352
			c-6.042,0-6.917,5.247-6.917,10.255c0,5.088,0.875,10.176,6.917,10.176c3.418,0,5.803-2.783,6.121-6.042h15.025
			c-1.511,11.209-10.335,17.49-21.465,17.49c-12.401,0-22.339-8.586-22.339-21.624c0-13.038,9.938-21.703,22.339-21.703
			c10.892,0,19.954,5.247,20.988,16.694H509.224z"/>
		<path d="M528.224,166.981l19.318-17.649h-17.569v-11.448h37.762v12.084l-18.841,17.728h20.511v11.448h-41.18V166.981z"/>
	</g>
</g>
</svg>
